<mxfile host="app.diagrams.net" modified="2023-01-09T19:23:30.005Z" agent="5.0 (Windows NT 10.0; Win64; x64) AppleWebKit/537.36 (KHTML, like Gecko) Chrome/108.0.0.0 Safari/537.36" version="20.8.3" etag="P8MSQD_MhxOAByDjEw-O" type="github">
  <diagram id="ghBj3F10TAIq-jsKssRt" name="Page-1">
    <mxGraphModel dx="1195" dy="637" grid="1" gridSize="10" guides="1" tooltips="1" connect="1" arrows="1" fold="1" page="1" pageScale="1" pageWidth="850" pageHeight="1100" math="0" shadow="0">
      <root>
        <mxCell id="0" />
        <mxCell id="1" parent="0" />
        <mxCell id="hWuFk6gNGlh1HsHyMFSa-1" value="" style="whiteSpace=wrap;html=1;aspect=fixed;" vertex="1" parent="1">
          <mxGeometry x="155" y="285" width="370" height="370" as="geometry" />
        </mxCell>
        <mxCell id="hWuFk6gNGlh1HsHyMFSa-2" value="" style="rounded=0;whiteSpace=wrap;html=1;" vertex="1" parent="1">
          <mxGeometry x="260" y="550" width="240" height="110" as="geometry" />
        </mxCell>
        <mxCell id="hWuFk6gNGlh1HsHyMFSa-6" value="Pikado" style="text;html=1;strokeColor=none;fillColor=none;align=center;verticalAlign=middle;whiteSpace=wrap;rounded=0;" vertex="1" parent="1">
          <mxGeometry x="150" y="610" width="60" height="30" as="geometry" />
        </mxCell>
        <mxCell id="hWuFk6gNGlh1HsHyMFSa-8" value="Sank" style="text;html=1;strokeColor=none;fillColor=none;align=center;verticalAlign=middle;whiteSpace=wrap;rounded=0;" vertex="1" parent="1">
          <mxGeometry x="320" y="590" width="120" height="50" as="geometry" />
        </mxCell>
        <mxCell id="hWuFk6gNGlh1HsHyMFSa-9" value="Platno" style="text;html=1;strokeColor=none;fillColor=none;align=center;verticalAlign=middle;whiteSpace=wrap;rounded=0;" vertex="1" parent="1">
          <mxGeometry x="340" y="290" width="60" height="30" as="geometry" />
        </mxCell>
        <mxCell id="hWuFk6gNGlh1HsHyMFSa-10" value="" style="whiteSpace=wrap;html=1;aspect=fixed;" vertex="1" parent="1">
          <mxGeometry x="330" y="350" width="20" height="20" as="geometry" />
        </mxCell>
        <mxCell id="hWuFk6gNGlh1HsHyMFSa-14" value="" style="whiteSpace=wrap;html=1;aspect=fixed;" vertex="1" parent="1">
          <mxGeometry x="360" y="350" width="20" height="20" as="geometry" />
        </mxCell>
        <mxCell id="hWuFk6gNGlh1HsHyMFSa-15" value="" style="whiteSpace=wrap;html=1;aspect=fixed;" vertex="1" parent="1">
          <mxGeometry x="390" y="350" width="20" height="20" as="geometry" />
        </mxCell>
        <mxCell id="hWuFk6gNGlh1HsHyMFSa-16" value="" style="whiteSpace=wrap;html=1;aspect=fixed;" vertex="1" parent="1">
          <mxGeometry x="330" y="390" width="20" height="20" as="geometry" />
        </mxCell>
        <mxCell id="hWuFk6gNGlh1HsHyMFSa-17" value="" style="whiteSpace=wrap;html=1;aspect=fixed;" vertex="1" parent="1">
          <mxGeometry x="360" y="390" width="20" height="20" as="geometry" />
        </mxCell>
        <mxCell id="hWuFk6gNGlh1HsHyMFSa-20" value="" style="whiteSpace=wrap;html=1;aspect=fixed;" vertex="1" parent="1">
          <mxGeometry x="390" y="390" width="20" height="20" as="geometry" />
        </mxCell>
        <mxCell id="hWuFk6gNGlh1HsHyMFSa-24" value="" style="rounded=0;whiteSpace=wrap;html=1;rotation=90;" vertex="1" parent="1">
          <mxGeometry x="140" y="420" width="120" height="70" as="geometry" />
        </mxCell>
        <mxCell id="hWuFk6gNGlh1HsHyMFSa-25" value="" style="rounded=0;whiteSpace=wrap;html=1;rotation=90;" vertex="1" parent="1">
          <mxGeometry x="430" y="430" width="120" height="20" as="geometry" />
        </mxCell>
        <mxCell id="hWuFk6gNGlh1HsHyMFSa-28" value="" style="whiteSpace=wrap;html=1;aspect=fixed;" vertex="1" parent="1">
          <mxGeometry x="310" y="510" width="30" height="30" as="geometry" />
        </mxCell>
        <mxCell id="hWuFk6gNGlh1HsHyMFSa-29" value="" style="whiteSpace=wrap;html=1;aspect=fixed;" vertex="1" parent="1">
          <mxGeometry x="360" y="510" width="30" height="30" as="geometry" />
        </mxCell>
        <mxCell id="hWuFk6gNGlh1HsHyMFSa-30" value="" style="whiteSpace=wrap;html=1;aspect=fixed;" vertex="1" parent="1">
          <mxGeometry x="410" y="510" width="30" height="30" as="geometry" />
        </mxCell>
        <mxCell id="hWuFk6gNGlh1HsHyMFSa-33" value="" style="rounded=0;whiteSpace=wrap;html=1;rotation=90;" vertex="1" parent="1">
          <mxGeometry x="137.5" y="322.5" width="45" height="10" as="geometry" />
        </mxCell>
        <mxCell id="hWuFk6gNGlh1HsHyMFSa-35" value="" style="rounded=0;whiteSpace=wrap;html=1;rotation=-180;" vertex="1" parent="1">
          <mxGeometry x="170" y="285" width="45" height="10" as="geometry" />
        </mxCell>
      </root>
    </mxGraphModel>
  </diagram>
</mxfile>
